<?xml version="1.0" encoding="utf-8"?>
<!-- Generator: Adobe Illustrator 19.0.0, SVG Export Plug-In . SVG Version: 6.00 Build 0)  -->
<svg version="1.1" id="Layer_1" xmlns="http://www.w3.org/2000/svg" xmlns:xlink="http://www.w3.org/1999/xlink" x="0px" y="0px"
	 viewBox="0 0 23.3 30" style="enable-background:new 0 0 23.3 30;" xml:space="preserve">
<style type="text/css">
	.st0{fill:url(#XMLID_98_);}
	.st1{fill:url(#XMLID_99_);}
	.st2{fill:url(#XMLID_100_);}
	.st3{fill:url(#XMLID_101_);}
</style>
<g id="XMLID_77_">
	<linearGradient id="XMLID_98_" gradientUnits="userSpaceOnUse" x1="11.6418" y1="8.101335e-002" x2="11.6418" y2="10.0592">
		<stop  offset="0.2135" style="stop-color:#FFF33B"/>
		<stop  offset="0.2702" style="stop-color:#FFE933"/>
		<stop  offset="0.4465" style="stop-color:#FFD61D"/>
		<stop  offset="0.6063" style="stop-color:#FECB10"/>
		<stop  offset="0.734" style="stop-color:#FDC70C"/>
		<stop  offset="0.8095" style="stop-color:#FDC70C"/>
	</linearGradient>
	<path id="XMLID_76_" class="st0" d="M11.6,0.1C5,0.1,0,2.7,0,5.1s5,5,11.6,5c6.7,0,11.6-2.6,11.6-5S18.3,0.1,11.6,0.1z"/>
	<linearGradient id="XMLID_99_" gradientUnits="userSpaceOnUse" x1="11.6416" y1="23.7025" x2="11.6416" y2="30.0197">
		<stop  offset="0.2135" style="stop-color:#FFF33B"/>
		<stop  offset="0.2702" style="stop-color:#FFE933"/>
		<stop  offset="0.4465" style="stop-color:#FFD61D"/>
		<stop  offset="0.6063" style="stop-color:#FECB10"/>
		<stop  offset="0.734" style="stop-color:#FDC70C"/>
		<stop  offset="0.8095" style="stop-color:#FDC70C"/>
	</linearGradient>
	<path id="XMLID_75_" class="st1" d="M11.6,26.7c-3.8,0-7.4-0.8-10.2-2.1C1,24.3,0.5,24,0,23.7V25c0,2.4,5,5,11.6,5
		c6.7,0,11.6-2.6,11.6-5v-1.3c-0.5,0.3-1,0.6-1.5,0.9C19.1,25.9,15.4,26.7,11.6,26.7z"/>
	<linearGradient id="XMLID_100_" gradientUnits="userSpaceOnUse" x1="11.6416" y1="17.049" x2="11.6416" y2="23.3663">
		<stop  offset="0.2135" style="stop-color:#FFF33B"/>
		<stop  offset="0.2702" style="stop-color:#FFE933"/>
		<stop  offset="0.4465" style="stop-color:#FFD61D"/>
		<stop  offset="0.6063" style="stop-color:#FECB10"/>
		<stop  offset="0.734" style="stop-color:#FDC70C"/>
		<stop  offset="0.8095" style="stop-color:#FDC70C"/>
	</linearGradient>
	<path id="XMLID_74_" class="st2" d="M11.6,20c-3.8,0-7.4-0.8-10.2-2.1C1,17.6,0.5,17.4,0,17v1.3c0,2.4,5,5,11.6,5
		c6.7,0,11.6-2.6,11.6-5V17c-0.5,0.3-1,0.6-1.5,0.9C19.1,19.3,15.4,20,11.6,20z"/>
	<linearGradient id="XMLID_101_" gradientUnits="userSpaceOnUse" x1="11.6416" y1="10.3956" x2="11.6416" y2="16.7128">
		<stop  offset="0.2135" style="stop-color:#FFF33B"/>
		<stop  offset="0.2702" style="stop-color:#FFE933"/>
		<stop  offset="0.4465" style="stop-color:#FFD61D"/>
		<stop  offset="0.6063" style="stop-color:#FECB10"/>
		<stop  offset="0.734" style="stop-color:#FDC70C"/>
		<stop  offset="0.8095" style="stop-color:#FDC70C"/>
	</linearGradient>
	<path id="XMLID_73_" class="st3" d="M11.6,13.4c-3.8,0-7.4-0.8-10.2-2.1C1,11,0.5,10.7,0,10.4v1.3c0,2.4,5,5,11.6,5
		c6.7,0,11.6-2.6,11.6-5v-1.3c-0.5,0.3-1,0.6-1.5,0.9C19.1,12.6,15.4,13.4,11.6,13.4z"/>
</g>
</svg>
